<?xml version="1.0" encoding="UTF-8"?>
<svg width="24px" height="14px" viewBox="0 0 24 14" version="1.1" xmlns="http://www.w3.org/2000/svg" xmlns:xlink="http://www.w3.org/1999/xlink">
    <!-- Generator: Sketch 52.5 (67469) - http://www.bohemiancoding.com/sketch -->
    <title>Fill 113</title>
    <desc>Created with Sketch.</desc>
    <g id="Page-1" stroke="none" stroke-width="1" fill="none" fill-rule="evenodd">
        <g id="Fill-113" transform="translate(-1.000000, 0.000000)" fill="#0B0C0A">
            <path d="M24,5.1289 L4.414,5.1289 L7.207,2.3359 C7.598,1.9449 7.598,1.3129 7.207,0.9219 C6.816,0.5309 6.184,0.5309 5.793,0.9219 L1.293,5.4219 C1.102,5.6129 0.996,5.8729 1,6.1429 C1.004,6.4119 1.117,6.6699 1.313,6.8559 L5.797,11.0979 C5.99,11.2789 6.236,11.3709 6.482,11.3709 C6.748,11.3709 7.014,11.2659 7.209,11.0589 C7.59,10.6559 7.572,10.0239 7.17,9.6449 L4.512,6.9999 L23,6.9999 L23,12.3709 C23,12.9239 23.447,13.3709 24,13.3709 C24.553,13.3709 25,12.9239 25,12.3709 L25,6.1289 C25,5.5759 24.553,5.1289 24,5.1289"></path>
        </g>
    </g>
</svg>