<?xml version="1.0" encoding="UTF-8"?>
<svg width="24px" height="22px" viewBox="0 0 24 22" version="1.1" xmlns="http://www.w3.org/2000/svg" xmlns:xlink="http://www.w3.org/1999/xlink">
    <!-- Generator: Sketch 52.5 (67469) - http://www.bohemiancoding.com/sketch -->
    <title>Fill 2070</title>
    <desc>Created with Sketch.</desc>
    <g id="Page-1" stroke="none" stroke-width="1" fill="none" fill-rule="evenodd">
        <g id="Fill-2070" fill="#000000">
            <path d="M16.8994,6.8003 C16.8014,6.9303 16.6514,7.0003 16.4994,7.0003 C16.3944,7.0003 16.2894,6.9673 16.1994,6.8993 C14.8634,5.8953 13.2014,5.4043 11.5334,5.5143 C11.2604,5.5333 11.0194,5.3253 11.0014,5.0493 C10.9824,4.7743 11.1914,4.5353 11.4664,4.5173 C13.3784,4.3903 15.2724,4.9523 16.7994,6.0993 C17.0204,6.2653 17.0654,6.5793 16.8994,6.8003 M6.0004,10.0003 C5.4484,10.0003 5.0004,9.5503 5.0004,9.0003 C5.0004,8.4483 5.4484,8.0003 6.0004,8.0003 C6.5504,8.0003 7.0004,8.4483 7.0004,9.0003 C7.0004,9.5503 6.5504,10.0003 6.0004,10.0003 M23.5004,8.0003 C23.2234,8.0003 23.0004,8.2233 23.0004,8.5003 C23.0004,9.1633 22.5634,9.7203 21.9644,9.9183 C21.6114,5.5023 17.2834,2.0003 12.0004,2.0003 C11.2714,2.0003 10.5274,2.0733 9.7834,2.2183 C9.0394,1.1503 7.8124,0.5003 6.5004,0.5003 C5.8004,0.5003 5.1094,0.6863 4.4994,1.0393 C4.3444,1.1283 4.2504,1.2933 4.2504,1.4713 C4.2504,1.6503 4.3444,1.8153 4.4994,1.9043 C5.2004,2.3103 5.7104,2.9913 5.9084,3.7663 C3.9344,5.0573 2.5914,6.9333 2.1554,9.0003 L0.5004,9.0003 C0.2234,9.0003 0.0004,9.2233 0.0004,9.5003 L0.0004,13.5003 C0.0004,13.7753 0.2234,14.0003 0.5004,14.0003 L2.8894,14.0003 C3.8514,15.8123 5.4954,17.2343 7.5004,18.0913 L7.5004,21.0003 C7.5004,21.2753 7.7234,21.5003 8.0004,21.5003 C8.2764,21.5003 8.5004,21.2753 8.5004,21.0003 L8.5004,18.4653 C9.5964,18.8123 10.7784,19.0003 12.0004,19.0003 C13.2324,19.0003 14.4084,18.8003 15.5004,18.4513 L15.5004,21.0003 C15.5004,21.2753 15.7234,21.5003 16.0004,21.5003 C16.2764,21.5003 16.5004,21.2753 16.5004,21.0003 L16.5004,18.0803 C19.6064,16.7423 21.7784,14.0693 21.9724,10.9513 C23.1254,10.7293 24.0004,9.7163 24.0004,8.5003 C24.0004,8.2233 23.7764,8.0003 23.5004,8.0003"></path>
        </g>
    </g>
</svg>