<?xml version="1.0" encoding="UTF-8"?>
<svg width="24px" height="24px" viewBox="0 0 24 24" version="1.1" xmlns="http://www.w3.org/2000/svg" xmlns:xlink="http://www.w3.org/1999/xlink">
    <!-- Generator: Sketch 52.5 (67469) - http://www.bohemiancoding.com/sketch -->
    <title>Group</title>
    <desc>Created with Sketch.</desc>
    <g id="Page-1" stroke="none" stroke-width="1" fill="none" fill-rule="evenodd">
        <g id="Group" fill="#000000">
            <path d="M20.5,20 C20.224,20 20,20.224 20,20.5 C20,20.775 20.224,21 20.5,21 C20.776,21 21,20.775 21,20.5 C21,20.224 20.776,20 20.5,20" id="Fill-43"></path>
            <path d="M3.5,20 C3.224,20 3,20.224 3,20.5 C3,20.775 3.224,21 3.5,21 C3.776,21 4,20.775 4,20.5 C4,20.224 3.776,20 3.5,20" id="Fill-45"></path>
            <path d="M3.5,3 C3.224,3 3,3.224 3,3.5 C3,3.775 3.224,4 3.5,4 C3.776,4 4,3.775 4,3.5 C4,3.224 3.776,3 3.5,3" id="Fill-47"></path>
            <path d="M20.5,3 C20.224,3 20,3.224 20,3.5 C20,3.775 20.224,4 20.5,4 C20.776,4 21,3.775 21,3.5 C21,3.224 20.776,3 20.5,3" id="Fill-49"></path>
            <path d="M20.5,5 C19.673,5 19,4.327 19,3.5 C19,2.673 19.673,2 20.5,2 C21.327,2 22,2.673 22,3.5 C22,4.327 21.327,5 20.5,5 L20.5,5 Z M20.5,22 C19.673,22 19,21.327 19,20.5 C19,19.673 19.673,19 20.5,19 C21.327,19 22,19.673 22,20.5 C22,21.327 21.327,22 20.5,22 L20.5,22 Z M16,8 L8,8 L8,6.5 C8,6.224 8.224,6 8.5,6 L15.5,6 C15.776,6 16,6.224 16,6.5 L16,8 Z M16,17.5 C16,17.776 15.776,18 15.5,18 L8.5,18 C8.224,18 8,17.776 8,17.5 L8,9 L16,9 L16,17.5 Z M3.5,5 C2.673,5 2,4.327 2,3.5 C2,2.673 2.673,2 3.5,2 C4.327,2 5,2.673 5,3.5 C5,4.327 4.327,5 3.5,5 L3.5,5 Z M3.5,22 C2.673,22 2,21.327 2,20.5 C2,19.673 2.673,19 3.5,19 C4.327,19 5,19.673 5,20.5 C5,21.327 4.327,22 3.5,22 L3.5,22 Z M23.5,0 L0.5,0 C0.224,0 0,0.224 0,0.5 L0,23.5 C0,23.776 0.224,24 0.5,24 L23.5,24 C23.776,24 24,23.776 24,23.5 L24,0.5 C24,0.224 23.776,0 23.5,0 L23.5,0 Z" id="Fill-51"></path>
        </g>
    </g>
</svg>