<?xml version="1.0" encoding="UTF-8"?>
<svg width="12px" height="19px" viewBox="0 0 12 19" version="1.1" xmlns="http://www.w3.org/2000/svg" xmlns:xlink="http://www.w3.org/1999/xlink">
    <!-- Generator: Sketch 52.5 (67469) - http://www.bohemiancoding.com/sketch -->
    <title>Combined Shape</title>
    <desc>Created with Sketch.</desc>
    <g id="Page-1" stroke="none" stroke-width="1" fill="none" fill-rule="evenodd">
        <g id="Tablet" transform="translate(-378.000000, -17.000000)" fill="#000000">
            <g id="logo" transform="translate(378.000000, 17.000000)">
                <path d="M0.196721262,2 C0.568186689,1.09837558 1.42602705,0.330096581 2.42676713,0.100640211 L2.57323287,0.0670575656 C3.91349935,-0.240247685 5,0.537854818 5,1.80362072 L5,16.7070114 C5,17.9733941 3.87790241,19 2.5,19 C1.11928812,19 0,17.9744996 0,16.7046926 L0,7 L1.5,7 C1.77614237,7 2,6.77614237 2,6.5 C2,6.22385763 1.77614237,6 1.5,6 L0,6 L0,5 L2.5,5 C2.77614237,5 3,4.77614237 3,4.5 C3,4.22385763 2.77614237,4 2.5,4 L0,4 L0,3 L3.5,3 C3.77614237,3 4,2.77614237 4,2.5 C4,2.22385763 3.77614237,2 3.5,2 L0.196721262,2 Z M9.5,19 C8.11928813,19 7,17.8807119 7,16.5 C7,15.1192881 8.11928813,14 9.5,14 C10.8807119,14 12,15.1192881 12,16.5 C12,17.8807119 10.8807119,19 9.5,19 Z" id="Combined-Shape"></path>
            </g>
        </g>
    </g>
</svg>