<?xml version="1.0" encoding="UTF-8"?>
<svg width="21px" height="24px" viewBox="0 0 21 24" version="1.1" xmlns="http://www.w3.org/2000/svg" xmlns:xlink="http://www.w3.org/1999/xlink">
    <!-- Generator: Sketch 52.5 (67469) - http://www.bohemiancoding.com/sketch -->
    <title>Fill 1015</title>
    <desc>Created with Sketch.</desc>
    <g id="Page-1" stroke="none" stroke-width="1" fill="none" fill-rule="evenodd">
        <g id="Fill-1015" transform="translate(-1.000000, -1.000000)" fill="#000000">
            <path d="M18.3481,11.0459 C18.2501,11.1439 18.1231,11.1919 17.9951,11.1919 C17.8671,11.1919 17.7391,11.1439 17.6411,11.0459 L11.9841,5.3889 C11.7881,5.1929 11.7881,4.8759 11.9841,4.6819 C12.1791,4.4859 12.4961,4.4859 12.6911,4.6819 L18.3481,10.3389 C18.5431,10.5339 18.5431,10.8509 18.3481,11.0459 M13.3981,12.4599 C13.0211,12.8379 12.5191,13.0459 11.9841,13.0459 C11.4501,13.0459 10.9481,12.8379 10.5701,12.4599 C10.1921,12.0819 9.9841,11.5799 9.9841,11.0459 C9.9841,10.5119 10.1921,10.0089 10.5701,9.6319 C11.3251,8.8759 12.6431,8.8759 13.3981,9.6319 C13.7761,10.0089 13.9841,10.5119 13.9841,11.0459 C13.9841,11.5799 13.7761,12.0819 13.3981,12.4599 M21.8831,5.3889 C21.6881,5.1929 21.3711,5.1929 21.1761,5.3889 L18.7021,7.8639 L15.1651,4.3279 L17.6411,1.8539 C17.8361,1.6579 17.8361,1.3419 17.6411,1.1469 C17.4461,0.9509 17.1291,0.9509 16.9341,1.1469 L14.4581,3.6209 L12.6911,1.8539 C12.4961,1.6579 12.1791,1.6579 11.9841,1.8539 L8.0951,5.7419 C6.2111,7.6259 5.9501,10.5639 7.2421,12.9599 L5.2661,14.9359 C5.1721,15.0279 5.1201,15.1559 5.1201,15.2879 C5.1201,15.4209 5.1721,15.5479 5.2661,15.6419 L5.9731,16.3489 L1.7311,20.5919 C0.7561,21.5669 0.7561,23.1519 1.7311,24.1269 C2.7061,25.1029 4.2911,25.1019 5.2661,24.1269 L8.4491,20.9449 C8.8261,20.5669 9.4851,20.5669 9.8631,20.9449 C10.2521,21.3349 10.2521,21.9699 9.8631,22.3589 L8.1801,24.0419 C7.9851,24.2359 7.9851,24.5539 8.1801,24.7489 C8.2781,24.8459 8.4061,24.8959 8.5341,24.8959 C8.6621,24.8959 8.7901,24.8459 8.8871,24.7489 L10.5701,23.0659 C11.3491,22.2859 11.3491,21.0189 10.5701,20.2379 C10.1921,19.8599 9.6901,19.6519 9.1561,19.6519 C8.6211,19.6519 8.1191,19.8599 7.7421,20.2379 L4.5591,23.4199 C3.9741,24.0049 3.0231,24.0049 2.4381,23.4199 C1.8531,22.8349 1.8531,21.8839 2.4381,21.2989 L6.6801,17.0559 L7.3881,17.7639 C7.4861,17.8609 7.6141,17.9099 7.7421,17.9099 C7.8701,17.9099 7.9981,17.8609 8.0951,17.7639 L10.0721,15.7869 C10.9521,16.2609 11.9201,16.5379 12.9191,16.5809 C13.0131,16.5859 13.1071,16.5869 13.2001,16.5869 C14.7731,16.5869 16.2161,16.0069 17.2881,14.9349 L21.1761,11.0459 C21.3711,10.8509 21.3711,10.5339 21.1761,10.3389 L19.4091,8.5709 L21.8831,6.0959 C22.0791,5.8999 22.0791,5.5839 21.8831,5.3889"></path>
        </g>
    </g>
</svg>