<svg width="24" height="24" viewBox="0 0 24 24" fill="none" xmlns="http://www.w3.org/2000/svg">
<path d="M12.2111 10.5028H22.0865C22.1955 11.1112 22.25 11.6924 22.25 12.2463C22.25 14.2168 21.8368 15.9763 21.0105 17.5245C20.1841 19.0728 19.0059 20.2828 17.4757 21.1546C15.9456 22.0264 14.1908 22.4622 12.2111 22.4622C10.7854 22.4622 9.42785 22.1876 8.13837 21.6382C6.84889 21.0888 5.73649 20.3464 4.80116 19.4111C3.86584 18.4758 3.12348 17.3634 2.57409 16.0739C2.0247 14.7844 1.75 13.4268 1.75 12.0011C1.75 10.5754 2.0247 9.21784 2.57409 7.92836C3.12348 6.63889 3.86584 5.52648 4.80116 4.59116C5.73649 3.65583 6.84889 2.91347 8.13837 2.36408C9.42785 1.81469 10.7854 1.53999 12.2111 1.53999C14.9354 1.53999 17.2737 2.45262 19.2261 4.27787L16.3792 7.01574C15.2623 5.93512 13.8729 5.39481 12.2111 5.39481C11.0397 5.39481 9.95681 5.68994 8.96246 6.28019C7.96811 6.87045 7.18034 7.67183 6.59917 8.68434C6.018 9.69686 5.72741 10.8025 5.72741 12.0011C5.72741 13.1998 6.018 14.3054 6.59917 15.3179C7.18034 16.3304 7.96811 17.1318 8.96246 17.722C9.95681 18.3123 11.0397 18.6074 12.2111 18.6074C13.0012 18.6074 13.7276 18.4985 14.3905 18.2805C15.0534 18.0626 15.5983 17.7902 16.0251 17.4632C16.4519 17.1363 16.8242 16.764 17.142 16.3463C17.4599 15.9286 17.6937 15.5336 17.8435 15.1613C17.9934 14.7889 18.0955 14.4348 18.15 14.0988H12.2111V10.5028Z" fill="#262F56"/>
</svg>
