<svg width="24" height="24" viewBox="0 0 24 24" fill="none" xmlns="http://www.w3.org/2000/svg">
<path fill-rule="evenodd" clip-rule="evenodd" d="M11.3763 1.52967C10.9115 1.62846 10.4743 1.88086 9.6 2.38565L4.87372 5.11437C3.99939 5.61916 3.56222 5.87156 3.24428 6.22467C2.96297 6.5371 2.75046 6.90517 2.62055 7.30501C2.47372 7.75691 2.47372 8.2617 2.47372 9.27129L2.47372 14.7287C2.47372 15.7383 2.47372 16.2431 2.62055 16.695C2.75046 17.0949 2.96297 17.4629 3.24428 17.7754C3.56222 18.1285 3.99939 18.3809 4.87372 18.8857L9.6 21.6144C10.4743 22.1192 10.9115 22.3716 11.3763 22.4704C11.7875 22.5578 12.2125 22.5578 12.6237 22.4704C13.0885 22.3716 13.5257 22.1192 14.4 21.6144L19.1263 18.8857C20.0006 18.3809 20.4378 18.1285 20.7557 17.7754C21.037 17.4629 21.2495 17.0949 21.3794 16.695C21.5263 16.2431 21.5263 15.7383 21.5263 14.7287V9.27129C21.5263 8.2617 21.5263 7.75691 21.3794 7.30501C21.2495 6.90517 21.037 6.5371 20.7557 6.22467C20.4378 5.87156 20.0006 5.61916 19.1263 5.11437L14.4 2.38565C13.5257 1.88086 13.0885 1.62846 12.6237 1.52967C12.2125 1.44226 11.7875 1.44226 11.3763 1.52967ZM12 15.5C13.933 15.5 15.5 13.933 15.5 12C15.5 10.067 13.933 8.5 12 8.5C10.067 8.5 8.5 10.067 8.5 12C8.5 13.933 10.067 15.5 12 15.5Z" fill="#262F56"/>
</svg>
