<?xml version="1.0" encoding="UTF-8"?>
<svg width="24px" height="24px" viewBox="0 0 24 24" version="1.1" xmlns="http://www.w3.org/2000/svg" xmlns:xlink="http://www.w3.org/1999/xlink">
    <!-- Generator: Sketch 55.2 (78181) - https://sketchapp.com -->
    <title>Fill 607</title>
    <desc>Created with Sketch.</desc>
    <g id="Page-1" stroke="none" stroke-width="1" fill="none" fill-rule="evenodd">
        <g id="Artboard" transform="translate(-783.000000, -3459.000000)" fill="#000000">
            <g id="Fill-607" transform="translate(782.000000, 3458.000000)">
                <path d="M21.0947,20.4277 C20.0397,19.8017 18.4547,19.2257 16.7757,18.6177 C16.3567,18.4667 15.9297,18.3117 15.4997,18.1527 L15.4997,16.3057 C16.0017,15.9957 16.8837,15.1977 16.9897,13.3697 C17.3757,13.1437 17.6197,12.6427 17.6197,11.9997 C17.6197,11.4217 17.4227,10.9567 17.0997,10.7057 C17.3427,9.9487 17.7807,8.5617 17.4847,7.3787 C17.1387,5.9917 15.2567,5.4997 13.7497,5.4997 C12.4087,5.4997 10.7677,5.8907 10.1817,6.9557 C9.4767,6.9217 9.0857,7.2297 8.8907,7.4867 C8.2557,8.3247 8.6747,9.8547 8.9107,10.6977 C8.5827,10.9467 8.3807,11.4147 8.3807,11.9997 C8.3807,12.6427 8.6237,13.1437 9.0107,13.3697 C9.1167,15.1977 9.9987,15.9957 10.4997,16.3057 L10.4997,18.1537 C10.1147,18.2967 9.7197,18.4407 9.3237,18.5837 C7.7027,19.1707 6.0357,19.7787 4.9167,20.4417 C3.0397,18.4047 1.9997,15.7817 1.9997,12.9997 C1.9997,6.9347 6.9347,1.9997 12.9997,1.9997 C19.0657,1.9997 23.9997,6.9347 23.9997,12.9997 C23.9997,15.7757 22.9647,18.3937 21.0947,20.4277 M12.9997,0.9997 C6.3837,0.9997 0.9997,6.3837 0.9997,12.9997 C0.9997,16.1797 2.2317,19.1767 4.4697,21.4377 L4.4697,21.4387 C6.7427,23.7357 9.7717,24.9997 12.9997,24.9997 C16.2337,24.9997 19.2677,23.7307 21.5417,21.4267 C23.7717,19.1657 24.9997,16.1737 24.9997,12.9997 C24.9997,6.3837 19.6167,0.9997 12.9997,0.9997"></path>
            </g>
        </g>
    </g>
</svg>