<?xml version="1.0" encoding="UTF-8"?>
<svg width="23px" height="22px" viewBox="0 0 23 22" version="1.1" xmlns="http://www.w3.org/2000/svg" xmlns:xlink="http://www.w3.org/1999/xlink">
    <!-- Generator: Sketch 55.2 (78181) - https://sketchapp.com -->
    <title>Fill 1391</title>
    <desc>Created with Sketch.</desc>
    <g id="Page-1" stroke="none" stroke-width="1" fill="none" fill-rule="evenodd">
        <g id="Artboard" transform="translate(-591.000000, -1683.000000)" fill="#000000">
            <g id="Fill-1391" transform="translate(591.000000, 1683.000000)">
                <path d="M23,11 C23,9.897 22.102,9 21,9 L13.641,9 C13.928,7.824 14.5,5.283 14.5,3.719 C14.5,1.761 13.33,0.87 12.244,0.87 C11.25,0.87 10.5,1.57 10.5,2.5 C10.5,6.92 6.81,10 3.5,10 L0.5,10 C0.224,10 0,10.224 0,10.5 L0,19.5 C0,19.776 0.224,20 0.5,20 C5.083,20 6.65,20.673 7.91,21.214 C8.852,21.619 9.74,22 11.5,22 L18,22 C19.102,22 20,21.103 20,20 C20,19.588 19.875,19.206 19.661,18.888 C20.439,18.614 21,17.871 21,17 C21,16.588 20.875,16.206 20.661,15.888 C21.439,15.614 22,14.871 22,14 C22,13.588 21.875,13.206 21.661,12.888 C22.439,12.614 23,11.871 23,11"></path>
            </g>
        </g>
    </g>
</svg>