<?xml version="1.0" encoding="UTF-8"?>
<svg width="23px" height="16px" viewBox="0 0 23 16" version="1.1" xmlns="http://www.w3.org/2000/svg" xmlns:xlink="http://www.w3.org/1999/xlink">
    <!-- Generator: Sketch 55.2 (78181) - https://sketchapp.com -->
    <title>Fill 559</title>
    <desc>Created with Sketch.</desc>
    <g id="Page-1" stroke="none" stroke-width="1" fill="none" fill-rule="evenodd">
        <g id="Artboard" transform="translate(-927.000000, -3079.000000)" fill="#000000">
            <g id="Fill-559" transform="translate(927.000000, 3079.000000)">
                <path d="M10.7236,3.9443 C10.4416,3.9443 10.1976,3.9513 9.9996,3.9623 L9.9996,0.5003 C9.9996,0.3063 9.8886,0.1313 9.7136,0.0483 C9.5386,-0.0347 9.3316,-0.0087 9.1816,0.1143 L0.6816,7.1143 C0.5666,7.2093 0.4996,7.3503 0.4996,7.5003 C0.4996,7.6493 0.5666,7.7913 0.6816,7.8863 L9.1816,14.8863 C9.3316,15.0093 9.5386,15.0353 9.7136,14.9523 C9.8886,14.8693 9.9996,14.6933 9.9996,14.5003 L9.9996,10.8913 C10.5066,10.7793 11.5096,10.6003 12.7476,10.6003 C15.5186,10.6003 19.2956,11.4913 21.5586,15.7353 C21.6476,15.9013 21.8186,16.0003 21.9996,16.0003 C22.0396,16.0003 22.0806,15.9953 22.1216,15.9853 C22.3436,15.9293 22.4996,15.7293 22.4996,15.5003 C22.4996,4.7773 13.4856,3.9443 10.7236,3.9443"></path>
            </g>
        </g>
    </g>
</svg>