<?xml version="1.0" encoding="UTF-8"?>
<svg width="24px" height="24px" viewBox="0 0 24 24" version="1.1" xmlns="http://www.w3.org/2000/svg" xmlns:xlink="http://www.w3.org/1999/xlink">
    <!-- Generator: Sketch 55.2 (78181) - https://sketchapp.com -->
    <title>Fill 199</title>
    <desc>Created with Sketch.</desc>
    <g id="Page-1" stroke="none" stroke-width="1" fill="none" fill-rule="evenodd">
        <g id="Artboard" transform="translate(-927.000000, -771.000000)" fill="#000000">
            <g id="Fill-199" transform="translate(927.000000, 771.000000)">
                <path d="M9,2 C12.859,2 16,5.14 16,9 C16,12.859 12.859,16 9,16 C5.14,16 2,12.859 2,9 C2,5.14 5.14,2 9,2 M9,18 C11.131,18 13.089,17.251 14.633,16.008 L22.291,23.706 C22.68,24.097 23.312,24.099 23.705,23.708 C24.097,23.319 24.098,22.686 23.709,22.294 L16.041,14.588 C17.264,13.052 18,11.111 18,9 C18,4.037 13.963,0 9,0 C4.037,0 0,4.037 0,9 C0,13.962 4.037,18 9,18"></path>
            </g>
        </g>
    </g>
</svg>