<?xml version="1.0" encoding="UTF-8"?>
<svg width="24px" height="24px" viewBox="0 0 24 24" version="1.1" xmlns="http://www.w3.org/2000/svg" xmlns:xlink="http://www.w3.org/1999/xlink">
    <!-- Generator: Sketch 55.2 (78181) - https://sketchapp.com -->
    <title>Fill 1480</title>
    <desc>Created with Sketch.</desc>
    <g id="Page-1" stroke="none" stroke-width="1" fill="none" fill-rule="evenodd">
        <g id="Artboard" transform="translate(-831.000000, -2835.000000)" fill="#000000">
            <g id="Fill-1480" transform="translate(831.000000, 2835.000000)">
                <path d="M19.5117,15 C17.9287,15 16.5387,15.819 15.7377,17.055 L8.7327,13.552 C8.9177,13.055 9.0117,12.534 9.0117,12 C9.0117,11.466 8.9177,10.946 8.7327,10.448 L15.7377,6.946 C16.5387,8.182 17.9287,9 19.5117,9 C21.9957,9 24.0117,6.985 24.0117,4.5 C24.0117,2.015 21.9957,0 19.5117,0 C17.0257,0 15.0117,2.015 15.0117,4.5 C15.0117,5.046 15.1137,5.567 15.2907,6.051 L8.2787,9.558 C7.4527,8.28 6.0547,7.5 4.5117,7.5 C2.0307,7.5 0.0117,9.519 0.0117,12 C0.0117,14.481 2.0307,16.5 4.5117,16.5 C6.0547,16.5 7.4527,15.721 8.2787,14.442 L15.2907,17.949 C15.1137,18.434 15.0117,18.954 15.0117,19.5 C15.0117,21.985 17.0257,24 19.5117,24 C21.9957,24 24.0117,21.985 24.0117,19.5 C24.0117,17.015 21.9957,15 19.5117,15"></path>
            </g>
        </g>
    </g>
</svg>