<?xml version="1.0" encoding="UTF-8"?>
<svg width="24px" height="24px" viewBox="0 0 24 24" version="1.1" xmlns="http://www.w3.org/2000/svg" xmlns:xlink="http://www.w3.org/1999/xlink">
    <!-- Generator: Sketch 55.2 (78181) - https://sketchapp.com -->
    <title>Fill 1455</title>
    <desc>Created with Sketch.</desc>
    <g id="Page-1" stroke="none" stroke-width="1" fill="none" fill-rule="evenodd">
        <g id="Artboard" transform="translate(-831.000000, -1827.000000)" fill="#000000">
            <g id="Fill-1455" transform="translate(831.000000, 1827.000000)">
                <path d="M23.9731,8.8363 C23.9031,8.6343 23.7131,8.5003 23.5001,8.5003 L15.3541,8.5003 L12.4711,0.3343 C12.4011,0.1333 12.2111,0.0003 12.0001,0.0003 C11.7871,0.0003 11.5991,0.1333 11.5291,0.3343 L8.6471,8.5003 L0.5001,8.5003 C0.2871,8.5003 0.0971,8.6343 0.0281,8.8363 C-0.0429,9.0383 0.0241,9.2613 0.1921,9.3933 L6.9141,14.6763 L4.0261,23.3413 C3.9561,23.5483 4.0301,23.7763 4.2051,23.9043 C4.3811,24.0323 4.6191,24.0323 4.7951,23.9033 L12.0001,18.6203 L19.2041,23.9033 C19.2921,23.9683 19.3971,24.0003 19.5001,24.0003 C19.6041,24.0003 19.7061,23.9683 19.7941,23.9043 C19.9711,23.7763 20.0431,23.5483 19.9751,23.3413 L17.0851,14.6763 L23.8091,9.3933 C23.9771,9.2613 24.0421,9.0383 23.9731,8.8363"></path>
            </g>
        </g>
    </g>
</svg>