<?xml version="1.0" encoding="UTF-8"?>
<svg width="18px" height="24px" viewBox="0 0 18 24" version="1.1" xmlns="http://www.w3.org/2000/svg" xmlns:xlink="http://www.w3.org/1999/xlink">
    <!-- Generator: Sketch 55.2 (78181) - https://sketchapp.com -->
    <title>Fill 145</title>
    <desc>Created with Sketch.</desc>
    <g id="Page-1" stroke="none" stroke-width="1" fill="none" fill-rule="evenodd">
        <g id="Artboard" transform="translate(-882.000000, -723.000000)" fill="#000000">
            <g id="Fill-145" transform="translate(882.000000, 722.000000)">
                <path d="M11.2037,1.0432 C10.9867,0.9462 10.7317,1.0162 10.5937,1.2092 L0.5937,15.2092 C0.4847,15.3612 0.4697,15.5622 0.5557,15.7292 C0.6407,15.8952 0.8127,16.0002 1.0007,16.0002 L8.3767,16.0002 L6.5127,24.3912 C6.4607,24.6232 6.5797,24.8592 6.7967,24.9562 C7.0127,25.0552 7.2697,24.9822 7.4067,24.7902 L17.4067,10.7902 C17.5157,10.6392 17.5297,10.4382 17.4447,10.2712 C17.3587,10.1052 17.1867,10.0002 17.0007,10.0002 L9.6237,10.0002 L11.4887,1.6082 C11.5397,1.3762 11.4207,1.1402 11.2037,1.0432"></path>
            </g>
        </g>
    </g>
</svg>