<?xml version="1.0" encoding="UTF-8"?>
<svg width="24px" height="24px" viewBox="0 0 24 24" version="1.1" xmlns="http://www.w3.org/2000/svg" xmlns:xlink="http://www.w3.org/1999/xlink">
    <!-- Generator: Sketch 55.2 (78181) - https://sketchapp.com -->
    <title>Fill 17</title>
    <desc>Created with Sketch.</desc>
    <g id="Page-1" stroke="none" stroke-width="1" fill="none" fill-rule="evenodd">
        <g id="Artboard" transform="translate(-927.000000, -6514.000000)" fill="#000000">
            <g id="Fill-17" transform="translate(926.000000, 6514.000000)">
                <path d="M18.3408,8.8652 L10.8408,15.8652 C10.7448,15.9552 10.6218,16.0002 10.4998,16.0002 C10.3718,16.0002 10.2438,15.9512 10.1468,15.8532 L7.6468,13.3532 C7.4508,13.1592 7.4508,12.8422 7.6468,12.6462 C7.8418,12.4512 8.1578,12.4512 8.3538,12.6462 L10.5118,14.8052 L17.6588,8.1352 C17.8598,7.9462 18.1768,7.9562 18.3648,8.1592 C18.5538,8.3602 18.5428,8.6772 18.3408,8.8652 M24.9998,12.0002 C24.9998,11.0992 24.5188,10.2952 23.7788,9.8562 C24.2918,9.1652 24.4288,8.2392 24.0868,7.4082 C23.7458,6.5842 23.0028,6.0172 22.1378,5.8932 C22.3488,5.0592 22.1198,4.1502 21.4838,3.5142 C20.8648,2.8952 19.9398,2.6502 19.1058,2.8602 C18.9818,2.0112 18.4218,1.2592 17.5898,0.9142 C16.7748,0.5772 15.8208,0.7122 15.1418,1.2182 C14.7018,0.4802 13.8988,0.0002 12.9998,0.0002 C12.0998,0.0002 11.2948,0.4802 10.8548,1.2182 C10.1758,0.7102 9.2218,0.5752 8.4048,0.9142 C7.5748,1.2582 7.0148,2.0102 6.8908,2.8602 C6.0568,2.6502 5.1318,2.8962 4.5128,3.5142 C3.8758,4.1502 3.6468,5.0592 3.8588,5.8932 C2.9958,6.0172 2.2548,6.5852 1.9138,7.4082 C1.5688,8.2392 1.7048,9.1672 2.2168,9.8562 C1.4798,10.2952 0.9998,11.0992 0.9998,12.0002 C0.9998,12.8992 1.4808,13.7042 2.2168,14.1442 C1.7048,14.8342 1.5688,15.7612 1.9128,16.5932 C2.2538,17.4142 2.9958,17.9822 3.8588,18.1062 C3.6478,18.9402 3.8768,19.8492 4.5128,20.4862 C5.1318,21.1042 6.0568,21.3502 6.8908,21.1392 C7.0158,21.9912 7.5748,22.7432 8.4058,23.0872 C9.2218,23.4262 10.1758,23.2892 10.8548,22.7832 C11.2958,23.5192 12.0998,24.0002 12.9998,24.0002 C13.8988,24.0002 14.7018,23.5192 15.1418,22.7832 C15.8198,23.2892 16.7728,23.4252 17.5908,23.0872 C18.4208,22.7432 18.9808,21.9912 19.1048,21.1392 C19.9378,21.3512 20.8638,21.1042 21.4838,20.4862 C22.1198,19.8492 22.3488,18.9402 22.1378,18.1072 C23.0028,17.9822 23.7458,17.4152 24.0868,16.5932 C24.4308,15.7622 24.2938,14.8342 23.7798,14.1442 C24.5188,13.7052 24.9998,12.9002 24.9998,12.0002"></path>
            </g>
        </g>
    </g>
</svg>